<svg id="Layer_1" data-name="Layer 1" xmlns="http://www.w3.org/2000/svg" viewBox="0 0 500 500"><defs><style>.cls-1{fill:red;}.cls-2{fill:tomato;}.cls-10,.cls-11,.cls-12,.cls-13,.cls-14,.cls-15,.cls-16,.cls-17,.cls-18,.cls-19,.cls-20,.cls-21,.cls-22,.cls-23,.cls-3,.cls-4,.cls-5,.cls-6,.cls-7,.cls-8,.cls-9{fill:none;stroke:#000;stroke-miterlimit:10;}.cls-3{stroke-width:5px;}.cls-4{stroke-width:4.55px;}.cls-5{stroke-width:4.1px;}.cls-6{stroke-width:3.65px;}.cls-7{stroke-width:3.2px;}.cls-8{stroke-width:2.75px;}.cls-9{stroke-width:2.3px;}.cls-10{stroke-width:1.85px;}.cls-11{stroke-width:1.4px;}.cls-12{stroke-width:0.95px;}.cls-13{stroke-width:0.5px;}.cls-14{stroke-width:4px;}.cls-15{stroke-width:3.65px;}.cls-16{stroke-width:3.3px;}.cls-17{stroke-width:2.95px;}.cls-18{stroke-width:2.6px;}.cls-19{stroke-width:2.25px;}.cls-20{stroke-width:1.9px;}.cls-21{stroke-width:1.55px;}.cls-22{stroke-width:1.2px;}.cls-23{stroke-width:0.85px;}</style></defs><title>Artboard 1</title><polygon class="cls-1" points="281.27 167 281 167 281.16 167.12 281.27 167"/><polygon class="cls-2" points="311.77 321.19 244.93 226.54 282.44 186.9 261.5 167.28 186.5 246.54 186.5 288.29 227.4 245.07 290.59 334.54 311.77 321.19"/><polygon class="cls-1" points="322.51 336 322.55 336 322.54 335.98 322.51 336"/><line class="cls-3" x1="161" y1="83" x2="186" y2="83"/><line class="cls-4" x1="161" y1="95" x2="186" y2="95"/><line class="cls-5" x1="161" y1="107" x2="186" y2="107"/><line class="cls-6" x1="161" y1="119" x2="186" y2="119"/><line class="cls-7" x1="161" y1="131" x2="186" y2="131"/><line class="cls-8" x1="161" y1="143" x2="186" y2="143"/><line class="cls-9" x1="161" y1="155" x2="186" y2="155"/><line class="cls-10" x1="161" y1="167" x2="186" y2="167"/><line class="cls-11" x1="161" y1="179" x2="186" y2="179"/><line class="cls-12" x1="161" y1="191" x2="186" y2="191"/><line class="cls-13" x1="161" y1="203" x2="186" y2="203"/><line class="cls-3" x1="186.29" y1="417" x2="160.71" y2="417"/><line class="cls-4" x1="186.29" y1="408.2" x2="160.71" y2="408.2"/><line class="cls-5" x1="186.29" y1="399.4" x2="160.71" y2="399.4"/><line class="cls-6" x1="186.29" y1="390.6" x2="160.71" y2="390.6"/><line class="cls-7" x1="186.29" y1="381.8" x2="160.71" y2="381.8"/><line class="cls-8" x1="186.29" y1="373" x2="160.71" y2="373"/><line class="cls-9" x1="186.29" y1="364.2" x2="160.71" y2="364.2"/><line class="cls-10" x1="186.29" y1="355.4" x2="160.71" y2="355.4"/><line class="cls-11" x1="186.29" y1="346.6" x2="160.71" y2="346.6"/><line class="cls-12" x1="186.29" y1="337.8" x2="160.71" y2="337.8"/><line class="cls-13" x1="186.29" y1="329" x2="160.71" y2="329"/><line class="cls-3" x1="348.01" y1="83.41" x2="366.68" y2="100.89"/><line class="cls-4" x1="342.49" y1="89.3" x2="361.16" y2="106.79"/><line class="cls-5" x1="336.97" y1="95.2" x2="355.64" y2="112.68"/><line class="cls-6" x1="331.45" y1="101.09" x2="350.12" y2="118.57"/><line class="cls-7" x1="325.94" y1="106.98" x2="344.6" y2="124.47"/><line class="cls-8" x1="320.42" y1="112.88" x2="339.08" y2="130.36"/><line class="cls-9" x1="314.9" y1="118.77" x2="333.56" y2="136.25"/><line class="cls-10" x1="309.38" y1="124.66" x2="328.04" y2="142.14"/><line class="cls-11" x1="303.86" y1="130.55" x2="322.52" y2="148.04"/><line class="cls-12" x1="298.34" y1="136.45" x2="317.01" y2="153.93"/><line class="cls-13" x1="292.82" y1="142.34" x2="311.49" y2="159.82"/><line class="cls-14" x1="368.67" y1="401.59" x2="347.8" y2="416.37"/><line class="cls-15" x1="364.92" y1="396.29" x2="344.04" y2="411.06"/><line class="cls-16" x1="361.16" y1="390.98" x2="340.29" y2="405.76"/><line class="cls-17" x1="357.41" y1="385.68" x2="336.53" y2="400.46"/><line class="cls-18" x1="353.65" y1="380.38" x2="332.78" y2="395.15"/><line class="cls-19" x1="349.9" y1="375.07" x2="329.03" y2="389.85"/><line class="cls-20" x1="346.14" y1="369.77" x2="325.27" y2="384.55"/><line class="cls-21" x1="342.39" y1="364.47" x2="321.52" y2="379.24"/><line class="cls-22" x1="338.63" y1="359.16" x2="317.76" y2="373.94"/><line class="cls-23" x1="334.88" y1="353.86" x2="314.01" y2="368.64"/><line class="cls-13" x1="331.13" y1="348.55" x2="310.25" y2="363.33"/></svg>