<svg id="Layer_1" data-name="Layer 1" xmlns="http://www.w3.org/2000/svg" viewBox="0 0 486.33 486.33"><defs><style>.cls-1{fill:red;}.cls-2{fill:tomato;}.cls-10,.cls-11,.cls-12,.cls-13,.cls-14,.cls-15,.cls-16,.cls-17,.cls-18,.cls-19,.cls-20,.cls-21,.cls-22,.cls-23,.cls-24,.cls-3,.cls-4,.cls-5,.cls-6,.cls-7,.cls-8,.cls-9{fill:none;stroke:#000;stroke-miterlimit:10;}.cls-3{stroke-width:5px;}.cls-4{stroke-width:4.55px;}.cls-5{stroke-width:4.1px;}.cls-6{stroke-width:3.65px;}.cls-7{stroke-width:3.2px;}.cls-8{stroke-width:2.75px;}.cls-9{stroke-width:2.3px;}.cls-10{stroke-width:1.85px;}.cls-11{stroke-width:1.4px;}.cls-12{stroke-width:0.95px;}.cls-13{stroke-width:0.5px;}.cls-14{stroke-width:4px;}.cls-15{stroke-width:3.65px;}.cls-16{stroke-width:3.3px;}.cls-17{stroke-width:2.95px;}.cls-18{stroke-width:2.6px;}.cls-19{stroke-width:2.25px;}.cls-20{stroke-width:1.9px;}.cls-21{stroke-width:1.55px;}.cls-22{stroke-width:1.2px;}.cls-23{stroke-width:0.85px;}.cls-24{stroke-width:9px;}</style></defs><title>Artboard 1</title><polygon class="cls-1" points="267.61 153.33 267.33 153.33 267.49 153.45 267.61 153.33"/><polygon class="cls-1" points="308.85 322.33 308.89 322.33 308.88 322.32 308.85 322.33"/><polygon class="cls-2" points="292.25 311.02 225.42 216.38 262.93 176.73 241.98 157.11 166.99 236.37 166.99 278.13 207.89 234.9 271.07 324.37 292.25 311.02"/><line class="cls-3" x1="141.49" y1="72.83" x2="166.49" y2="72.83"/><line class="cls-4" x1="141.49" y1="84.83" x2="166.49" y2="84.83"/><line class="cls-5" x1="141.49" y1="96.83" x2="166.49" y2="96.83"/><line class="cls-6" x1="141.49" y1="108.83" x2="166.49" y2="108.83"/><line class="cls-7" x1="141.49" y1="120.83" x2="166.49" y2="120.83"/><line class="cls-8" x1="141.49" y1="132.83" x2="166.49" y2="132.83"/><line class="cls-9" x1="141.49" y1="144.83" x2="166.49" y2="144.83"/><line class="cls-10" x1="141.49" y1="156.83" x2="166.49" y2="156.83"/><line class="cls-11" x1="141.49" y1="168.83" x2="166.49" y2="168.83"/><line class="cls-12" x1="141.49" y1="180.83" x2="166.49" y2="180.83"/><line class="cls-13" x1="141.49" y1="192.83" x2="166.49" y2="192.83"/><line class="cls-3" x1="166.77" y1="406.83" x2="141.2" y2="406.83"/><line class="cls-4" x1="166.77" y1="398.03" x2="141.2" y2="398.03"/><line class="cls-5" x1="166.77" y1="389.23" x2="141.2" y2="389.23"/><line class="cls-6" x1="166.77" y1="380.43" x2="141.2" y2="380.43"/><line class="cls-7" x1="166.77" y1="371.63" x2="141.2" y2="371.63"/><line class="cls-8" x1="166.77" y1="362.83" x2="141.2" y2="362.83"/><line class="cls-9" x1="166.77" y1="354.03" x2="141.2" y2="354.03"/><line class="cls-10" x1="166.77" y1="345.23" x2="141.2" y2="345.23"/><line class="cls-11" x1="166.77" y1="336.43" x2="141.2" y2="336.43"/><line class="cls-12" x1="166.77" y1="327.63" x2="141.2" y2="327.63"/><line class="cls-13" x1="166.77" y1="318.83" x2="141.2" y2="318.83"/><line class="cls-3" x1="328.5" y1="73.25" x2="347.17" y2="90.73"/><line class="cls-4" x1="322.98" y1="79.14" x2="341.65" y2="96.62"/><line class="cls-5" x1="317.46" y1="85.03" x2="336.13" y2="102.51"/><line class="cls-6" x1="311.94" y1="90.92" x2="330.61" y2="108.41"/><line class="cls-7" x1="306.42" y1="96.82" x2="325.09" y2="114.3"/><line class="cls-8" x1="300.9" y1="102.71" x2="319.57" y2="120.19"/><line class="cls-9" x1="295.38" y1="108.6" x2="314.05" y2="126.08"/><line class="cls-10" x1="289.86" y1="114.49" x2="308.53" y2="131.98"/><line class="cls-11" x1="284.35" y1="120.39" x2="303.01" y2="137.87"/><line class="cls-12" x1="278.83" y1="126.28" x2="297.49" y2="143.76"/><line class="cls-13" x1="273.31" y1="132.17" x2="291.97" y2="149.65"/><line class="cls-14" x1="349.16" y1="391.42" x2="328.29" y2="406.2"/><line class="cls-15" x1="345.4" y1="386.12" x2="324.53" y2="400.9"/><line class="cls-16" x1="341.65" y1="380.82" x2="320.78" y2="395.59"/><line class="cls-17" x1="337.9" y1="375.51" x2="317.02" y2="390.29"/><line class="cls-18" x1="334.14" y1="370.21" x2="313.27" y2="384.99"/><line class="cls-19" x1="330.39" y1="364.91" x2="309.51" y2="379.68"/><line class="cls-20" x1="326.63" y1="359.6" x2="305.76" y2="374.38"/><line class="cls-21" x1="322.88" y1="354.3" x2="302" y2="369.08"/><line class="cls-22" x1="319.12" y1="349" x2="298.25" y2="363.77"/><line class="cls-23" x1="315.37" y1="343.69" x2="294.49" y2="358.47"/><line class="cls-13" x1="311.61" y1="338.39" x2="290.74" y2="353.17"/><rect class="cls-24" x="26.18" y="20.83" width="438" height="438"/></svg>