<svg id="Layer_1" data-name="Layer 1" xmlns="http://www.w3.org/2000/svg" viewBox="0 0 469.33 469.33"><defs><style>.cls-1{fill:red;}.cls-2{fill:tomato;}.cls-10,.cls-11,.cls-12,.cls-13,.cls-14,.cls-15,.cls-16,.cls-17,.cls-18,.cls-19,.cls-20,.cls-21,.cls-22,.cls-23,.cls-24,.cls-3,.cls-4,.cls-5,.cls-6,.cls-7,.cls-8,.cls-9{fill:none;stroke-miterlimit:10;}.cls-10,.cls-11,.cls-12,.cls-13,.cls-14,.cls-15,.cls-16,.cls-17,.cls-18,.cls-19,.cls-20,.cls-21,.cls-22,.cls-23,.cls-3,.cls-4,.cls-5,.cls-6,.cls-7,.cls-8,.cls-9{stroke:#000;}.cls-3{stroke-width:5px;}.cls-4{stroke-width:4.55px;}.cls-5{stroke-width:4.1px;}.cls-6{stroke-width:3.65px;}.cls-7{stroke-width:3.2px;}.cls-8{stroke-width:2.75px;}.cls-9{stroke-width:2.3px;}.cls-10{stroke-width:1.85px;}.cls-11{stroke-width:1.4px;}.cls-12{stroke-width:0.95px;}.cls-13{stroke-width:0.5px;}.cls-14{stroke-width:4px;}.cls-15{stroke-width:3.65px;}.cls-16{stroke-width:3.3px;}.cls-17{stroke-width:2.95px;}.cls-18{stroke-width:2.6px;}.cls-19{stroke-width:2.25px;}.cls-20{stroke-width:1.9px;}.cls-21{stroke-width:1.55px;}.cls-22{stroke-width:1.2px;}.cls-23{stroke-width:0.85px;}.cls-24{stroke:#231f20;stroke-linecap:round;stroke-width:17px;}</style></defs><title>Artboard 1</title><polygon class="cls-1" points="259.61 145.33 259.33 145.33 259.49 145.45 259.61 145.33"/><polygon class="cls-1" points="300.85 314.33 300.89 314.33 300.88 314.32 300.85 314.33"/><polygon class="cls-2" points="281.91 306.02 215.08 211.38 252.59 171.73 231.64 152.11 156.65 231.37 156.65 273.13 197.55 229.9 260.74 319.37 281.91 306.02"/><line class="cls-3" x1="131.15" y1="67.83" x2="156.15" y2="67.83"/><line class="cls-4" x1="131.15" y1="79.83" x2="156.15" y2="79.83"/><line class="cls-5" x1="131.15" y1="91.83" x2="156.15" y2="91.83"/><line class="cls-6" x1="131.15" y1="103.83" x2="156.15" y2="103.83"/><line class="cls-7" x1="131.15" y1="115.83" x2="156.15" y2="115.83"/><line class="cls-8" x1="131.15" y1="127.83" x2="156.15" y2="127.83"/><line class="cls-9" x1="131.15" y1="139.83" x2="156.15" y2="139.83"/><line class="cls-10" x1="131.15" y1="151.83" x2="156.15" y2="151.83"/><line class="cls-11" x1="131.15" y1="163.83" x2="156.15" y2="163.83"/><line class="cls-12" x1="131.15" y1="175.83" x2="156.15" y2="175.83"/><line class="cls-13" x1="131.15" y1="187.83" x2="156.15" y2="187.83"/><line class="cls-3" x1="156.43" y1="401.83" x2="130.86" y2="401.83"/><line class="cls-4" x1="156.43" y1="393.03" x2="130.86" y2="393.03"/><line class="cls-5" x1="156.43" y1="384.23" x2="130.86" y2="384.23"/><line class="cls-6" x1="156.43" y1="375.43" x2="130.86" y2="375.43"/><line class="cls-7" x1="156.43" y1="366.63" x2="130.86" y2="366.63"/><line class="cls-8" x1="156.43" y1="357.83" x2="130.86" y2="357.83"/><line class="cls-9" x1="156.43" y1="349.03" x2="130.86" y2="349.03"/><line class="cls-10" x1="156.43" y1="340.23" x2="130.86" y2="340.23"/><line class="cls-11" x1="156.43" y1="331.43" x2="130.86" y2="331.43"/><line class="cls-12" x1="156.43" y1="322.63" x2="130.86" y2="322.63"/><line class="cls-13" x1="156.43" y1="313.83" x2="130.86" y2="313.83"/><line class="cls-3" x1="318.16" y1="68.25" x2="336.83" y2="85.73"/><line class="cls-4" x1="312.64" y1="74.14" x2="331.31" y2="91.62"/><line class="cls-5" x1="307.12" y1="80.03" x2="325.79" y2="97.51"/><line class="cls-6" x1="301.6" y1="85.92" x2="320.27" y2="103.41"/><line class="cls-7" x1="296.08" y1="91.82" x2="314.75" y2="109.3"/><line class="cls-8" x1="290.56" y1="97.71" x2="309.23" y2="115.19"/><line class="cls-9" x1="285.04" y1="103.6" x2="303.71" y2="121.08"/><line class="cls-10" x1="279.53" y1="109.49" x2="298.19" y2="126.98"/><line class="cls-11" x1="274.01" y1="115.39" x2="292.67" y2="132.87"/><line class="cls-12" x1="268.49" y1="121.28" x2="287.15" y2="138.76"/><line class="cls-13" x1="262.97" y1="127.17" x2="281.63" y2="144.65"/><line class="cls-14" x1="338.82" y1="386.42" x2="317.95" y2="401.2"/><line class="cls-15" x1="335.06" y1="381.12" x2="314.19" y2="395.9"/><line class="cls-16" x1="331.31" y1="375.82" x2="310.44" y2="390.59"/><line class="cls-17" x1="327.56" y1="370.51" x2="306.68" y2="385.29"/><line class="cls-18" x1="323.8" y1="365.21" x2="302.93" y2="379.99"/><line class="cls-19" x1="320.05" y1="359.91" x2="299.17" y2="374.68"/><line class="cls-20" x1="316.29" y1="354.6" x2="295.42" y2="369.38"/><line class="cls-21" x1="312.54" y1="349.3" x2="291.66" y2="364.08"/><line class="cls-22" x1="308.78" y1="344" x2="287.91" y2="358.77"/><line class="cls-23" x1="305.03" y1="338.69" x2="284.15" y2="353.47"/><line class="cls-13" x1="301.27" y1="333.39" x2="280.4" y2="348.17"/><circle class="cls-24" cx="234.84" cy="234.83" r="225"/></svg>