<svg id="Layer_1" data-name="Layer 1" xmlns="http://www.w3.org/2000/svg" viewBox="0 0 1511 398"><defs><style>.cls-1,.cls-10,.cls-14{fill:none;stroke-miterlimit:10;}.cls-1,.cls-14{stroke:#000;}.cls-1{stroke-width:4px;}.cls-2{font-size:38px;}.cls-11,.cls-2{font-family:Montserrat-Regular, Montserrat;}.cls-3{letter-spacing:-0.01em;}.cls-4{letter-spacing:-0.02em;}.cls-5{letter-spacing:0.01em;}.cls-6{letter-spacing:-0.01em;}.cls-7{letter-spacing:-0.01em;}.cls-8{letter-spacing:-0.01em;}.cls-9{letter-spacing:-0.03em;}.cls-10{stroke:#231f20;stroke-linecap:round;stroke-width:2px;}.cls-11{font-size:17.59px;}.cls-12{letter-spacing:-0.02em;}.cls-13{letter-spacing:-0.01em;}.cls-14{stroke-width:3px;}</style></defs><title>Artboard 1</title><path d="M1497,13.83v371H15v-371H1497m7-7H8v385H1504V6.83Z"/><line class="cls-1" x1="1224.81" y1="262.11" x2="1235.03" y2="293.99"/><line class="cls-1" x1="1212.97" y1="227.93" x2="1217.26" y2="240.16"/><line class="cls-1" x1="1075.03" y1="220.63" x2="1213.26" y2="227.19"/><line class="cls-1" x1="1467.31" y1="135.92" x2="1075.03" y2="220.63"/><line class="cls-1" x1="1233.95" y1="289.69" x2="1236.07" y2="257.37"/><line class="cls-1" x1="1236.36" y1="256.78" x2="1142.19" y2="306.07"/><line class="cls-1" x1="1467.31" y1="135.92" x2="1236.36" y2="256.78"/><line class="cls-1" x1="1229.91" y1="230.27" x2="1143.05" y2="305.2"/><line class="cls-1" x1="1211.27" y1="227.59" x2="1461.98" y2="137.69"/><line class="cls-1" x1="1228.33" y1="231.02" x2="1464.1" y2="136.87"/><line class="cls-1" x1="1234.83" y1="292.35" x2="1466.9" y2="137.08"/><line class="cls-1" x1="1071.83" y1="288.71" x2="1176.62" y2="247.97"/><line class="cls-1" x1="1135.23" y1="254.22" x2="1173.83" y2="238.89"/><line class="cls-1" x1="1143" y1="272.12" x2="1169.46" y2="261.61"/><text class="cls-2" transform="translate(104 77.2)">1. w<tspan class="cls-3" x="65.13" y="0">r</tspan><tspan x="80.06" y="0">i</tspan><tspan class="cls-4" x="90.29" y="0">t</tspan><tspan x="104.99" y="0">e.</tspan></text><text class="cls-2" transform="translate(587 78.2)"><tspan class="cls-5">2</tspan><tspan x="21.96" y="0">. </tspan><tspan class="cls-6" x="39.98" y="0">f</tspan><tspan x="52.51" y="0">old.</tspan></text><text class="cls-2" transform="translate(989 78.2)">3. th<tspan class="cls-7" x="80.6" y="0">r</tspan><tspan class="cls-8" x="95.34" y="0">o</tspan><tspan class="cls-9" x="118.6" y="0">w</tspan><tspan x="150.71" y="0">.</tspan></text><rect class="cls-1" x="153" y="131.93" width="267.55" height="164.2"/><rect class="cls-1" x="380.97" y="140" width="29.32" height="35.19"/><line class="cls-1" x1="246.83" y1="210.37" x2="339.92" y2="210.37"/><line class="cls-1" x1="166.93" y1="145.13" x2="209.44" y2="145.13"/><line class="cls-1" x1="166.93" y1="153.19" x2="209.44" y2="153.19"/><line class="cls-1" x1="166.93" y1="161.25" x2="209.44" y2="161.25"/><line class="cls-1" x1="246.83" y1="225.03" x2="339.92" y2="225.03"/><line class="cls-1" x1="246.83" y1="239.69" x2="339.92" y2="239.69"/><rect class="cls-1" x="435.22" y="131.2" width="6.6" height="166.4"/><polygon class="cls-10" points="436.31 298.7 438.7 310.79 441.08 298.7 436.31 298.7"/><text class="cls-11" transform="translate(276.64 205.05)"><tspan class="cls-12">K</tspan><tspan class="cls-13" x="12.09" y="0">e</tspan><tspan x="22.54" y="0">v</tspan></text><polyline class="cls-1" points="840.01 173.94 840.31 355.09 675.9 355.37 675.59 169.9"/><line class="cls-1" x1="754.18" y1="261.41" x2="754.04" y2="175.12"/><line class="cls-1" x1="689.07" y1="341.42" x2="689" y2="298.9"/><line class="cls-1" x1="697.14" y1="341.41" x2="697.07" y2="298.89"/><line class="cls-1" x1="705.2" y1="341.39" x2="705.13" y2="298.88"/><line class="cls-1" x1="768.84" y1="261.39" x2="768.7" y2="175.37"/><line class="cls-1" x1="783.5" y1="261.36" x2="783.36" y2="175.62"/><text class="cls-11" transform="matrix(0, -1, 1, 0, 748.81, 231.61)"><tspan class="cls-12">K</tspan><tspan class="cls-13" x="12.09" y="0">e</tspan><tspan x="22.54" y="0">v</tspan></text><line class="cls-14" x1="769" y1="176.12" x2="839.5" y2="176.12"/><line class="cls-14" x1="675.5" y1="176.12" x2="769" y2="176.12"/><line class="cls-1" x1="757" y1="86.62" x2="757" y2="175.62"/><line class="cls-1" x1="675" y1="172.62" x2="757" y2="87.62"/><line class="cls-1" x1="675" y1="175.62" x2="675.84" y2="174.72"/><line class="cls-1" x1="757" y1="87.62" x2="840" y2="175.62"/></svg>