<svg id="Layer_1" data-name="Layer 1" xmlns="http://www.w3.org/2000/svg" viewBox="0 0 1600 540"><defs><style>.cls-1,.cls-2{fill:none;stroke-miterlimit:10;}.cls-1{stroke:#000;stroke-width:4px;}.cls-2{stroke:#231f20;stroke-linecap:round;stroke-width:2px;}.cls-3{font-size:44px;font-family:Montserrat-Regular, Montserrat;}.cls-4{letter-spacing:-0.02em;}.cls-5{letter-spacing:0.01em;}</style></defs><title>Artboard 1</title><path d="M1541,91.83v371H59v-371H1541m7-7H52v385H1548v-385Z"/><line class="cls-1" x1="1135.5" y1="310.38" x2="1143.62" y2="353.33"/><line class="cls-1" x1="1127.74" y1="274.57" x2="1130.92" y2="289.18"/><line class="cls-1" x1="970.85" y1="246.62" x2="1127.74" y2="274.57"/><line class="cls-1" x1="1432" y1="205.33" x2="970.85" y2="246.62"/><line class="cls-1" x1="1142.99" y1="348.25" x2="1151.24" y2="305.06"/><line class="cls-1" x1="1432" y1="205.33" x2="1030.56" y2="346.98"/><line class="cls-1" x1="1146.8" y1="279.65" x2="1028.02" y2="348.25"/><line class="cls-1" x1="1125.84" y1="273.93" x2="1425.65" y2="206.6"/><line class="cls-1" x1="1144.89" y1="280.29" x2="1428.19" y2="205.97"/><line class="cls-1" x1="1143.62" y1="351.43" x2="1431.36" y2="206.6"/><line class="cls-1" x1="957.51" y1="324.11" x2="1083.28" y2="292.35"/><line class="cls-1" x1="1035" y1="293.63" x2="1081.37" y2="281.56"/><line class="cls-1" x1="1041.36" y1="315.22" x2="1073.15" y2="306.95"/><rect class="cls-1" x="277" y="157.83" width="365" height="224"/><rect class="cls-1" x="588" y="168.83" width="40" height="48"/><line class="cls-1" x1="405" y1="264.83" x2="532" y2="264.83"/><line class="cls-1" x1="296" y1="175.83" x2="354" y2="175.83"/><line class="cls-1" x1="296" y1="186.83" x2="354" y2="186.83"/><line class="cls-1" x1="296" y1="197.83" x2="354" y2="197.83"/><line class="cls-1" x1="405" y1="284.83" x2="532" y2="284.83"/><line class="cls-1" x1="405" y1="304.83" x2="532" y2="304.83"/><rect class="cls-1" x="662" y="156.83" width="9" height="227"/><polygon class="cls-2" points="663.5 385.33 666.75 401.83 670 385.33 663.5 385.33"/><text class="cls-3" transform="translate(100 159.65)">S<tspan class="cls-4" x="27.06" y="0">t</tspan><tspan x="44.09" y="0">ep 1.</tspan></text><text class="cls-3" transform="translate(839 160.65)">S<tspan class="cls-4" x="27.06" y="0">t</tspan><tspan x="44.09" y="0">ep </tspan><tspan class="cls-5" x="112.02" y="0">2</tspan><tspan x="137.45" y="0">.</tspan></text></svg>