<svg version="1" xmlns="http://www.w3.org/2000/svg" width="933.333" height="933.333" viewBox="0 0 700.000000 700.000000"><path d="M226.8 112.8c-1.1.2-1.6 1.3-1.5 3.5l.2 3.2 17.6.1 17.5.1-.2-3.1c-.1-1.7-.3-3.3-.3-3.6-.1-.5-30.7-.7-33.3-.2zM487.1 116.6l-2.2 2.8 12.3 11.8c6.8 6.4 12.8 11.7 13.4 11.8.6 0 2.1-1.1 3.3-2.4 1.9-2 2-2.5.8-3.3-.8-.4-5.5-4.6-10.4-9.2-4.8-4.6-10.2-9.7-11.9-11.3l-3.1-2.9-2.2 2.7zM479.6 124.9c-2.2 2.4-1.8 3 5.8 10.1 3.2 3 8.6 8 11.9 11.1l5.9 5.7 2.5-2.1 2.4-2.2-12.8-12.2c-7-6.7-13.1-12.2-13.4-12.3-.3 0-1.4.9-2.3 1.9zM228.4 130c-2.4.4-2.9 1-3.1 3.5l-.1 3h17.4c9.6 0 17.4-.2 17.5-.5 0-.3.2-1.5.5-2.8.2-1.4-.2-2.5-1.2-2.9-2-.7-26.9-1-31-.3zM471.6 133.2c-1.6 2.3-1.5 2.4 5.1 8.7 3.8 3.5 9.5 9 12.9 12.2l6.1 5.8 2.1-2.2 2.2-2.1-3.6-3.2c-1.9-1.8-6.8-6.3-10.8-10-4-3.8-8.4-7.9-9.8-9.2l-2.6-2.3-1.6 2.3zM464.2 141.2c-2.2 2.2-2.5 1.9 18.8 21.6 5.1 4.7 5.6 4.9 7.2 3.4 1.6-1.6 1-2.4-11-13.9-7-6.8-12.9-12.3-13.2-12.3-.4 0-1.1.5-1.8 1.2zM225.4 149.7l.1 2.8H243c18.7 0 17.7.3 17.1-4.5-.1-.6-6.6-1-17.5-1h-17.3l.1 2.7zM456.1 149.7c-1.3 1.4-.1 3 11 13.4 6.8 6.5 12.9 11.8 13.4 11.9.6 0 1.7-.5 2.5-1 1.2-.8.7-1.7-3-5.1-2.5-2.3-7.6-7.1-11.5-10.8-10.9-10.3-10.7-10.2-12.4-8.4zM448.7 157.7c-1.7 1.6-2 1.3 11.9 14.3 13.4 12.6 13 12.2 14.3 10.7 1.2-1.5 1.1-1.7-17.4-19.1-7.2-6.7-7.7-7.1-8.8-5.9zM225.9 164.2c0 .2-.2 1.3-.5 2.5l-.4 2.3h36l-.4-2.3c-.3-2.2-.5-2.2-17.4-2.5-9.5-.1-17.2-.1-17.3 0zM440.9 166.1c-1.1.7 1.8 3.9 11.6 13.3 10.2 9.8 13.3 12.2 14.4 11.3 1.1-.9 0-2.4-5.5-7.5-3.8-3.5-9.7-9-13-12.2-4.4-4.2-6.5-5.5-7.5-4.9zM432.7 174.7c-.4.3 1.4 2.6 4 5.1 2.7 2.4 7.7 7.2 11.4 10.5 9.8 9.3 10.6 9.9 11.3 8.8.6-.9-4.3-5.9-19.4-19.9-5.7-5.3-6.2-5.6-7.3-4.5zM225.4 183.3v2.3h17.2c15.7.1 17.3-.1 17.7-1.7.3-1 .2-2-.1-2.3-.3-.3-8.2-.6-17.7-.6h-17.1v2.3zM425.5 182.8c-.9.9 24.7 25.2 25.9 24.4.5-.3-2.6-3.9-7-8-4.3-4-10.2-9.6-13-12.3-2.8-2.6-5.5-4.5-5.9-4.1zM420.5 194.6c2.2 2 8.2 7.7 13.3 12.6 5.2 4.9 9.6 8.7 9.9 8.5.8-.9-24.4-24.7-26.2-24.7-.5 0 .8 1.7 3 3.6zM226.3 198.7c-.7.2-1.3 1.1-1.3 1.8 0 1.1 3 1.5 13.8 1.7 16.7.4 21.7-.1 21.7-2.2 0-1.3-2.6-1.5-16.5-1.7-9.1 0-17.1.1-17.7.4zM416.2 205.5c3.7 3.8 6.9 6.7 7 6.5.2-.3-2.8-3.4-6.7-7l-7-6.4 6.7 6.9zM424.1 213.2c.2.2 3.1 2.8 6.4 5.8l6 5.5-5.5-5.8c-3-3.1-5.9-5.7-6.4-5.7s-.7.1-.5.2zM225.4 216.2c-1.3 2.1 1.7 2.5 17.3 2.3 19.4-.2 18.4-.1 17.7-1.8-.4-1.1-4.3-1.3-17.5-1.3-9.4 0-17.2.3-17.5.8zM226.1 232.8c-.6.2-1.1.8-1.1 1.3 0 1.3 34.7 1.2 35.5-.1.3-.6.3-1.1-.2-1.1-2.1-.3-33.3-.4-34.2-.1zM352.4 248.6c-7.6 8.1-15.4 16.3-17.3 18.3-1.9 2-9.8 10.3-17.6 18.6-7.9 8.2-15.7 16.6-17.5 18.5-1.8 1.9-9.7 10.2-17.5 18.5-7.8 8.2-15.9 16.8-17.9 18.9l-3.6 3.9v58.2l8.3-8.6c4.5-4.7 14.5-15.2 22.2-23.4 7.7-8.1 16.9-17.8 20.5-21.6l6.5-6.7 17.5 24.9c9.6 13.8 18.5 26.5 19.8 28.2 4 5.4 25.1 35.3 37.6 53.2 6.6 9.3 12.3 17.4 12.7 17.9.7.8 25-13.5 28.8-17 1.1-1-6.7-12.6-44.4-66-25.2-35.7-46.2-65.4-46.7-66.1-.6-.8 1.9-4.1 7.9-10.4 4.8-5.1 12.7-13.4 17.4-18.4 4.7-4.9 12.3-13 17-17.8 4.6-4.9 8.5-9.2 8.7-9.6.1-.4-5.4-6.1-12.4-12.7-7-6.5-13.5-12.7-14.4-13.7-1.6-1.6-2.4-1-15.6 12.9zM226 250.5c-1 1.3 33.3 1.5 34.6.2.9-.9 1-.9-17.9-1.1-10.2-.1-16.1.2-16.7.9zM228 267.1c-2.8.4-2 .6 3.5 1 6.8.4 31.5-.4 28.5-1-3.2-.5-28.7-.6-32 0zM235.5 284c-.3.5.1 1 1 1s1.3-.5 1-1c-.3-.6-.8-1-1-1-.2 0-.7.4-1 1zM245.6 283.9c-.3.4.7.8 2.1.9 1.5.1 2.3-.1 1.9-.5-.9-1-3.5-1.3-4-.4zM239.8 284.7c.7.3 1.6.2 1.9-.1.4-.3-.2-.6-1.3-.5-1.1 0-1.4.3-.6.6zM255.3 284.7c.9.2 2.3.2 3 0 .6-.3-.1-.5-1.8-.5-1.6 0-2.2.2-1.2.5zM226.3 460.7c.9.2 2.5.2 3.5 0 .9-.3.1-.5-1.8-.5-1.9 0-2.7.2-1.7.5zM232.8 460.7c.6.2 1.8.2 2.5 0 .6-.3.1-.5-1.3-.5-1.4 0-1.9.2-1.2.5zM239.3 460.7c1.5.2 3.9.2 5.5 0 1.5-.2.2-.4-2.8-.4s-4.3.2-2.7.4zM248.8 460.7c.6.2 1.8.2 2.5 0 .6-.3.1-.5-1.3-.5-1.4 0-1.9.2-1.2.5zM254.3 460.7c.9.2 2.5.2 3.5 0 .9-.3.1-.5-1.8-.5-1.9 0-2.7.2-1.7.5zM226.2 472.9c-.6.4 6.7.7 16.2.6 9.6 0 17.7-.3 18-.6.9-.8-32.8-.9-34.2 0zM225 485c0 .9 6.9 1.2 27 1.1 8.9 0 9 0 9-.9 0-.5-8.1-1-18-1.1-11.8-.1-18 .2-18 .9zM455.5 493.1c-9.8 7-10.6 8.3-1.2 1.9 6.5-4.4 9.9-7.2 8.5-6.9-.2 0-3.4 2.3-7.3 5zM463.1 498.7c-5.1 3.8-19.3 13.7-22.1 15.3-.8.5-1.2 1.1-.9 1.4.6.6 27.4-17.7 28.4-19.4 1.1-1.7-.2-1.1-5.4 2.7zM225 497.6c0 1.1 3.5 1.4 18 1.4 14.4 0 18-.3 18-1.3 0-1.1-3.6-1.4-18-1.4-14.5 0-18 .2-18 1.3z"/><path d="M440.1 504.1c-6.6 4.8-7.6 5.8-3.6 3.5 3.1-1.8 10.4-7.6 9.5-7.5-.3 0-3 1.8-5.9 4zM459.5 511.9c-7.6 5.5-14.1 10.4-14.3 11.1-.6 1.7-.3 1.5 15.6-9.7 7.2-5.2 13.2-9.8 13.2-10.4 0-.5-.1-.9-.2-.9-.2.1-6.6 4.5-14.3 9.9zM225 509.9c0 1.4 1.9 1.6 17.7 1.6 15.4 0 17.8-.2 18.1-1.6.2-1.4-1.9-1.6-17.8-1.6-16-.1-18 .1-18 1.6zM465 519.1c-6.9 5-13.1 9.4-13.9 9.8-.7.5-1.2 1.4-1 2 .4 1.1 28-17.6 29.4-19.9 1.8-2.9-3.3-.1-14.5 8.1zM475.9 522.1c-18.8 13.1-23.3 16.9-19.8 16.9.6 0 3.8-2 7.2-4.5 3.4-2.5 9.5-6.9 13.6-9.7 6.9-4.9 9.6-7.8 7.3-7.8-.5 0-4.2 2.3-8.3 5.1zM225 522.2c0 2-.3 1.9 15.5 1.9 21.1 0 20.5.1 20.5-2 0-1.8-1-1.9-18-1.8-16.7 0-18 .2-18 1.9zM484 527.3c-2.5 1.9-7.9 5.7-12 8.5-11.5 7.9-12.6 8.9-11.4 10.1.7.8 4.7-1.5 13.5-7.6 6.8-4.8 13-9.3 13.7-10 .7-.7 1.7-1.3 2.2-1.3.5 0 .7-.7.4-1.5-.8-2-1.2-1.9-6.4 1.8zM479.5 541.2c-7.7 5.5-14.1 10.4-14.3 10.9-.2.5.3 1.2 1.1 1.5.8.3 5-2 9.8-5.4 9.2-6.4 19.1-13.4 19.8-13.9.3-.2-.2-1-1-1.7-1.2-1.1-3.5.2-15.4 8.6zM225 534.5v2.4l17.8-.2c17.1-.2 17.7-.3 18-2.3.3-2-.1-2.1-17.8-2.1l-18-.1v2.3zM494.9 541.3c-14.3 9.9-23.9 16.8-24.3 17.6-.3.5 0 1.4.8 2 1.1.9 4.1-.7 14.2-7.9 15.5-11 15.9-11.3 14.7-13.3-.7-1.4-1.5-1.1-5.4 1.6zM225 546.9v2.6h17.7l17.8-.1.3-2.6.3-2.5-18-.1H225v2.7zM490 555.5c-7.4 5.3-13.8 9.9-14.1 10.3-.4.4-.2 1.5.5 2.4 1.2 1.6 2.6.8 15.8-8.5 12.2-8.6 14.4-10.6 13.6-12-.5-.9-1.2-1.7-1.6-1.7-.4 0-6.8 4.3-14.2 9.5zM494.3 563.2c-12.6 9-14 10.3-13 12 .7 1 1.5 1.8 1.9 1.8.5 0 25-16.8 28.6-19.6.6-.4-1.8-4.4-2.6-4.4-.4.1-7.1 4.6-14.9 10.2zM225 559.1v2.9h36V556.3l-18-.1h-18v2.9zM500.2 570c-7.8 5.6-14.2 10.4-14.2 10.9 0 .4.6 1.5 1.3 2.5 1.2 1.7 2.4 1 15.8-8.4 7.9-5.6 14.5-10.3 14.6-10.4.1-.1-.6-1.1-1.5-2.4l-1.7-2.3-14.3 10.1zM225 571.5v3.2l17.8-.1 17.7-.1.3-3.1.3-3.1-18-.1H225v3.3zM225.3 581.6c-.2.7-.3 2.3-.1 3.5.3 2.3.4 2.3 16.3 2.4 8.8 0 16.8-.1 17.8-.4 1.2-.2 1.7-1.3 1.7-3.6v-3.2h-17.6c-13.5 0-17.7.3-18.1 1.3z"/></svg>